<?xml version="1.0" encoding="UTF-8"?>
<svg id="Layer_1" data-name="Layer 1" xmlns="http://www.w3.org/2000/svg" viewBox="0 0 315 240.01">
  <defs>
    <style>.cls-1 {
  fill: #fff;
}

</style>
  </defs>
  <g>
    <path class="cls-1" d="M64.27,123.4l8.71,2.63c-.58,2.44-1.51,4.48-2.76,6.12-1.26,1.64-2.82,2.87-4.68,3.71-1.87,.83-4.24,1.25-7.12,1.25-3.5,0-6.35-.51-8.57-1.52s-4.13-2.8-5.74-5.36-2.41-5.83-2.41-9.82c0-5.32,1.42-9.41,4.25-12.27s6.83-4.29,12.01-4.29c4.05,0,7.24,.82,9.55,2.46,2.32,1.64,4.04,4.15,5.17,7.55l-8.78,1.95c-.31-.98-.63-1.7-.96-2.15-.56-.76-1.24-1.35-2.04-1.75-.8-.41-1.7-.61-2.7-.61-2.25,0-3.98,.91-5.18,2.72-.91,1.34-1.36,3.45-1.36,6.33,0,3.56,.54,6.01,1.62,7.33,1.08,1.32,2.6,1.98,4.56,1.98s3.34-.53,4.31-1.6,1.68-2.62,2.12-4.65h0Z"></path>
    <path class="cls-1" d="M90.63,125.92l9.46-.59c.21,1.54,.62,2.71,1.25,3.51,1.02,1.3,2.49,1.95,4.39,1.95,1.42,0,2.51-.33,3.28-1s1.15-1.44,1.15-2.31-.37-1.58-1.1-2.24-2.43-1.28-5.09-1.86c-4.36-.98-7.47-2.28-9.32-3.91-1.87-1.62-2.81-3.69-2.81-6.21,0-1.65,.48-3.21,1.44-4.68s2.4-2.62,4.32-3.47c1.92-.84,4.56-1.26,7.91-1.26,4.11,0,7.24,.76,9.4,2.29s3.44,3.96,3.85,7.29l-9.37,.55c-.25-1.45-.77-2.5-1.57-3.16-.8-.66-1.9-.99-3.3-.99-1.16,0-2.03,.25-2.61,.73-.58,.49-.88,1.09-.88,1.79,0,.51,.24,.97,.72,1.38,.47,.42,1.58,.82,3.33,1.18,4.34,.94,7.46,1.88,9.33,2.84,1.88,.96,3.25,2.15,4.1,3.56,.86,1.42,1.28,3.01,1.28,4.76,0,2.06-.57,3.96-1.71,5.7-1.14,1.74-2.73,3.06-4.78,3.96s-4.63,1.35-7.74,1.35c-5.47,0-9.26-1.05-11.36-3.16-2.11-2.11-3.3-4.78-3.58-8.03v.03Z"></path>
    <path class="cls-1" d="M137.63,125.92l9.46-.59c.21,1.54,.62,2.71,1.25,3.51,1.02,1.3,2.49,1.95,4.39,1.95,1.42,0,2.51-.33,3.28-1s1.15-1.44,1.15-2.31-.37-1.58-1.1-2.24-2.43-1.28-5.09-1.86c-4.36-.98-7.47-2.28-9.32-3.91-1.87-1.62-2.81-3.69-2.81-6.21,0-1.65,.48-3.21,1.44-4.68s2.4-2.62,4.32-3.47c1.92-.84,4.56-1.26,7.91-1.26,4.11,0,7.24,.76,9.4,2.29,2.16,1.53,3.44,3.96,3.85,7.29l-9.37,.55c-.25-1.45-.77-2.5-1.57-3.16s-1.9-.99-3.3-.99c-1.16,0-2.03,.25-2.61,.73-.58,.49-.88,1.09-.88,1.79,0,.51,.24,.97,.72,1.38,.47,.42,1.58,.82,3.33,1.18,4.34,.94,7.46,1.88,9.33,2.84,1.88,.96,3.25,2.15,4.1,3.56,.86,1.42,1.28,3.01,1.28,4.76,0,2.06-.57,3.96-1.71,5.7-1.14,1.74-2.73,3.06-4.78,3.96s-4.63,1.35-7.74,1.35c-5.47,0-9.26-1.05-11.36-3.16-2.11-2.11-3.3-4.78-3.58-8.03v.03Z"></path>
    <path class="cls-1" d="M186.5,104.4h14.76c2.91,0,5.26,.4,7.05,1.18,1.79,.79,3.27,1.92,4.44,3.4,1.17,1.48,2.02,3.2,2.54,5.16s.79,4.04,.79,6.23c0,3.44-.39,6.1-1.17,8s-1.87,3.48-3.26,4.76-2.88,2.13-4.48,2.56c-2.18,.58-4.15,.88-5.92,.88h-14.76v-32.16h.01Zm9.94,7.27v17.57h2.43c2.08,0,3.55-.23,4.43-.69s1.57-1.26,2.06-2.41c.5-1.15,.75-3.01,.75-5.58,0-3.41-.56-5.74-1.67-7s-2.95-1.89-5.53-1.89h-2.47Z"></path>
    <path class="cls-1" d="M255.65,131.25h-11.28l-1.57,5.31h-10.15l12.09-32.16h10.84l12.08,32.16h-10.41l-1.61-5.31h0Zm-2.06-6.95l-3.55-11.56-3.51,11.56h7.06Z"></path>
  </g>
  <path class="cls-1" d="M0,76.01H29L105.01,0h82c-25.34,25.34-50.67,50.67-76.01,76.01h19l36-36,36.5,36.5h112.5v5.5H3l-3-6Z"></path>
  <path class="cls-1" d="M315,164h-29c-25.34,25.34-50.67,50.67-76.01,76.01H127.99c25.34-25.34,50.67-50.67,76.01-76.01h-19l-36,36-36.5-36.5H0v-5.5H312l3,6Z"></path>
</svg>