<?xml version="1.0" encoding="UTF-8"?>
<svg id="Layer_2" data-name="Layer 2" xmlns="http://www.w3.org/2000/svg" viewBox="0 0 115.65 33.7">
  <polygon points="38.32 0 0 0 0 33.7 10.59 33.7 10.59 21.03 22.52 21.03 29.08 12.38 10.74 12.38 10.74 8.5 32.06 8.5 38.32 0"></polygon>
  <polygon points="19.16 33.1 24.75 24.75 59.2 24.75 59.2 33.7 19.16 33.7 19.16 33.1"></polygon>
  <polygon points="28.62 20.26 34.19 12.2 59.2 12.2 59.2 20.26 28.62 20.26"></polygon>
  <polygon points="38.32 8.42 43.91 0 58.66 0 58.66 8.42 38.32 8.42"></polygon>
  <path d="M62.63,0V33.7h43.98c5.95-1.36,9.53-6.42,8.86-10.86-.63-4.17-4.79-6.35-5.3-6.61,.23-.1,4.79-2.12,5.41-6.67C116.13,5.58,113.42,1.41,108.98,0h-12.13l-6.66,8.02h14.52c.93,.08,1.67,.74,1.81,1.53,.18,1-.6,2.1-1.81,2.25h-19.19l-7.16,8.95h26.65c1,.11,1.77,.92,1.83,1.88,.06,1.04-.74,2-1.83,2.12h-32.02V0"></path>
</svg>