<?xml version="1.0" encoding="UTF-8"?>
<svg id="Ebene_1" data-name="Ebene 1" xmlns="http://www.w3.org/2000/svg" viewBox="0 0 163.58 52.93">
  <path d="M137.45,9.08h9.32V51.57h7.49V9.08h9.32V2.27h-26.13v6.81Zm-9.31,5.91c.02-7.2-5.75-13.07-12.95-13.18-7.27,0-12.95,6.14-12.95,12.5,0,13.63,18.63,16.13,18.63,25-.12,3.27-2.86,5.82-6.13,5.71-3.02-.11-5.47-2.47-5.69-5.48v-3.61h-7.27v2.95c.11,7.24,5.98,13.08,13.22,13.14,7.28,0,13.17-5.9,13.18-13.18,0-12.95-18.63-15.9-18.63-24.53,.07-3.07,2.61-5.51,5.68-5.45,3.04,.02,5.53,2.41,5.68,5.45v3.62h7.27l-.04-2.94ZM88.61,2.27h-7.27V51.57h7.27V2.27ZM46.8,51.57h23.86v-7h-16.59V2.27h-7.27V51.57Z"></path>
  <polygon points="0 2.5 0 34.53 4.77 34.53 4.77 20.67 13.86 20.67 13.86 16.13 4.77 16.13 4.77 7.04 15.45 7.04 15.45 2.5 0 2.5"></polygon>
  <polygon points="35.22 0 12.04 52.93 12.95 52.93 36.35 0 35.22 0"></polygon>
</svg>