<?xml version="1.0" encoding="utf-8"?>
<!-- Generator: Adobe Illustrator 27.0.0, SVG Export Plug-In . SVG Version: 6.00 Build 0)  -->
<svg version="1.1" id="Layer_1" xmlns="http://www.w3.org/2000/svg" xmlns:xlink="http://www.w3.org/1999/xlink" x="0px" y="0px" viewBox="0 0 2000 2000" style="enable-background: new 0 0 2000 2000" xml:space="preserve">
<style>.st0 {
  fill: #fff;
}

</style>
<path class="st0" d="M999.82,1151.23c0,0-118-51.8-118-115.2s0-163.4,0-163.4s61.6,3.9,118-23.5c56.5,27.5,118,23.5,118,23.5
	s0,100.1,0,163.4C1117.82,1099.33,999.82,1151.23,999.82,1151.23z M1021.22,963.33c-14.2-45.2-28.5-45.2-42.7,0
	c-46.4-10.3-53.6,2-21.4,36.9c-32.1,34.9-25,47.2,21.4,36.9c14.2,45.2,28.5,45.2,42.7,0c46.4,10.3,53.6-2,21.4-36.9
	C1074.72,965.43,1067.62,953.13,1021.22,963.33z"></path>
</svg>
