<?xml version="1.0" encoding="UTF-8"?>
<svg id="svg3155" xmlns="http://www.w3.org/2000/svg" viewBox="0 0 575.91 232.32">
  <defs>
    <style>.cls-1 {
  fill-rule: evenodd;
}

</style>
  </defs>
  <g id="layer1">
    <g id="g31580">
      <path id="path31402" d="M191.55,40.22c69.22,5.1,108.18-14.49,121.55-40.22h70.67c-21.25,61.45-87.52,99.95-192.22,94.68V40.22"></path>
      <path id="path31404" class="cls-1" d="M434.81,94.72l-25.35,35.61,58.56,85.68V94.72h-33.21Zm-175.26,7.22v109.73s55.28-82.11,55.28-82.11l-25.93-33.97c21.66-5.98,41.33-15.22,58.48-28.65l16.7,21.16,31.7-47.89h180.13v54.35h-40.51V227.29h-139.62l-35.73-53.38-37.14,53.38H191.57v-36.5c-9.44,25.81-39.24,41.53-98.33,41.53C5.59,232.32,1.34,201.34,0,165.85H69.31c.22,10.59,2.01,18.27,6.26,23.3,4.47,5.03,10.51,7.68,19.45,7.68,14.08,0,29.29-3.97,29.29-19.33,0-3.44-1.12-6.35-2.91-8.74-9.17-12.18-86.31-21.18-108-43.69-8.72-9-11.4-22.5-11.4-33.36C2.01,49.88,34.43,31.08,99.05,31.08c68.64,0,84.89,24.03,85.79,63.48H118.09c-.45-10.59-3.62-18.86-8.27-22.7-4.5-3.71-8.4-5.43-15.24-5.3-14.31,.28-21.91,6.36-21.91,16.16,0,2.91,.89,6.62,2.91,8.74,10.51,11.91,85.19,20.39,106.65,43.16,3.41,3.6,6.88,8.31,9.34,14.84v-44.04c22.18,.82,45.25,.09,67.98-3.46"></path>
    </g>
  </g>
</svg>