<?xml version="1.0" encoding="utf-8"?>
<!-- Generator: Adobe Illustrator 27.0.0, SVG Export Plug-In . SVG Version: 6.00 Build 0)  -->
<svg version="1.1" xmlns="http://www.w3.org/2000/svg" xmlns:xlink="http://www.w3.org/1999/xlink" x="0px" y="0px" viewBox="0 0 1048.4 204.1" style="enable-background: new 0 0 1048.4 204.1" xml:space="preserve">
<style>.st0 {
  fill-rule: evenodd;
  clip-rule: evenodd;
}

.st1 {
  display: none;
}

.st2 {
  display: inline;
}

.st3 {
  fill: none;
  stroke: #030307;
  stroke-width: .25px;
  stroke-miterlimit: 10;
}

.st4 {
  fill: none;
  stroke: #030307;
  stroke-width: .25px;
  stroke-miterlimit: 10;
  display: inline;
}

</style>
<g id="Ebene_1">
	<g>
		<polygon class="st0" points="138.9,141.7 138.5,141.7 120.5,73.3 98.3,73.3 79.6,141.7 79.2,141.7 59.7,73.3 36.3,73.3 
			67.2,164.8 90.4,164.8 108.8,96.9 109.1,96.9 127.7,164.8 150.3,164.8 181.6,73.3 159.2,73.3 		"></polygon>
		<path class="st0" d="M229.9,70.8c-29.8,0-48.3,22.3-48.3,48.3c0,28.1,17.6,48.1,48.9,48.1c21.8,0,40.4-11.2,45.2-31.2h-20.9
			c-3.9,10.1-11.6,15.2-24.3,15.2c-18.4,0-26.9-12.7-26.9-27.1H277C280.7,96.9,261.4,70.8,229.9,70.8z M203.6,111
			c0.6-13.6,11-24.2,26.3-24.2c14.9,0,24.3,11.5,25.1,24.2H203.6z"></path>
		<path class="st0" d="M491,70.9c-29.8,0-48.3,22.3-48.3,48.3c0,28.1,17.6,48.1,48.9,48.1c21.8,0,40.4-11.2,45.2-31.2h-20.9
			c-3.9,10.1-11.6,15.2-24.3,15.2c-18.4,0-26.8-12.7-26.8-27.1h73.4C541.8,96.9,522.5,70.9,491,70.9z M464.8,111
			c0.6-13.6,11-24.2,26.3-24.2c14.9,0,24.3,11.5,25.1,24.2H464.8z"></path>
		<rect x="553.5" y="44.1" class="st0" width="22" height="120.7"></rect>
		<path class="st0" d="M637.6,70.9c-29.8,0-48.3,22.3-48.3,48.3c0,28.1,17.6,48.1,48.9,48.1c21.8,0,40.4-11.2,45.2-31.2h-20.9
			c-3.9,10.1-11.6,15.2-24.3,15.2c-18.4,0-26.9-12.7-26.9-27.1h73.4C688.4,96.9,669.1,70.9,637.6,70.9z M611.3,111
			c0.6-13.6,11-24.2,26.3-24.2c14.9,0,24.3,11.5,25.1,24.2H611.3z"></path>
		<path class="st0" d="M881,44.1h-22v29.2h-16.6v15H859v54c0.4,15.2,4.6,23.4,27.6,23.4c4.8,0,9.5-0.7,14.3-1.1v-15.6
			c-3.1,0.7-6.2,0.7-9.3,0.7c-9.9,0-10.6-4.2-10.6-12.6V88.4h17v-15h-17V44.1z"></path>
		<path class="st0" d="M959.7,70.9c-29.8,0-48.3,22.3-48.3,48.3c0,28.1,17.6,48.1,48.9,48.1c21.8,0,40.4-11.2,45.2-31.2h-20.9
			c-3.9,10.1-11.6,15.2-24.3,15.2c-18.4,0-26.9-12.7-26.9-27.1h73.4C1010.5,96.9,991.2,70.9,959.7,70.9z M933.4,111
			c0.6-13.6,11-24.2,26.3-24.2c14.9,0,24.3,11.5,25.1,24.2H933.4z"></path>
		<path class="st0" d="M757,71.4c-1.9-0.2-3.3-0.5-8.3-0.5c-13.5,0-26.7,10.4-29.2,20.2h-0.4V73.3h-20.7v91.5h22v-43.5
			c0-20.2,12-31.3,27-31.3c3.1,0,6.4,0.5,9.5,0.9V71.4z"></path>
		<path class="st0" d="M834.8,144.5V97.4c0-19.3-20.5-26.6-40-26.6c-6.2,0-17.8-0.2-23.5,0.6V91c3.9-2.8,15.7-3.3,22.4-3.3
			c8.9,0,20.5,1,20.5,11.5c0,11.9-16,9.9-31.8,12.5c-18.5,1.9-36.6,6.1-36.6,28.9c0,17.9,16.2,26.7,34.2,26.7
			c11.8,0,25.9-3.4,34.6-11.2c1.7,8.3,8.1,11.2,17,11.2c3.7,0,10.6-1.2,13.9-2.3v-14c-2.3,0.4-4.1,0.4-5.4,0.4
			C836,151.4,834.8,149.4,834.8,144.5z M812.8,134c0,12.7-15.1,17.3-24.7,17.3c-7.7,0-20.3-2.7-20.3-11.7c0-10.6,8.5-13.8,18-15.2
			c9.7-1.6,20.3-1.4,27-5.5V134z"></path>
		<g id="light_2_">
			<path d="M443,36.8h-22l-42.1,50.7l-7.5-9L406,36.8h-22l-23.6,28.5l-23.6-28.5h-22l34.6,41.7l-7.5,9l-42.1-50.7h-22l53.1,64
				l-53.1,64h22l42.1-50.7l7.5,9l-34.6,41.7h22l23.6-28.5l23.6,28.5h22l-34.6-41.7l7.5-9l42.1,50.7h22l-53.1-64L443,36.8z
				 M360.4,109.8l-7.5-9l7.5-9l7.5,9L360.4,109.8z"></path>
		</g>
	</g>
</g>
<g id="Grid" class="st1">
	<g class="st2">
		<rect x="22" y="146.7" class="st3" width="110" height="110"></rect>
		<line class="st3" x1="22" y1="238.3" x2="131.9" y2="238.3"></line>
		<line class="st3" x1="22" y1="220" x2="131.9" y2="220"></line>
		<line class="st3" x1="22" y1="201.7" x2="131.9" y2="201.7"></line>
		<line class="st3" x1="22" y1="183.4" x2="131.9" y2="183.4"></line>
		<line class="st3" x1="22" y1="165" x2="131.9" y2="165"></line>
		<line class="st3" x1="113.6" y1="146.7" x2="113.6" y2="256.7"></line>
		<line class="st3" x1="95.3" y1="146.7" x2="95.3" y2="256.7"></line>
		<line class="st3" x1="77" y1="146.7" x2="77" y2="256.7"></line>
		<line class="st3" x1="58.6" y1="146.7" x2="58.6" y2="256.7"></line>
		<line class="st3" x1="40.3" y1="146.7" x2="40.3" y2="256.7"></line>
	</g>
	<g class="st2">
		<rect x="131.9" y="146.7" class="st3" width="110" height="110"></rect>
		<line class="st3" x1="131.9" y1="238.3" x2="241.9" y2="238.3"></line>
		<line class="st3" x1="131.9" y1="220" x2="241.9" y2="220"></line>
		<line class="st3" x1="131.9" y1="201.7" x2="241.9" y2="201.7"></line>
		<line class="st3" x1="131.9" y1="183.4" x2="241.9" y2="183.4"></line>
		<line class="st3" x1="131.9" y1="165" x2="241.9" y2="165"></line>
		<line class="st3" x1="223.6" y1="146.7" x2="223.6" y2="256.7"></line>
		<line class="st3" x1="205.2" y1="146.7" x2="205.2" y2="256.7"></line>
		<line class="st3" x1="186.9" y1="146.7" x2="186.9" y2="256.7"></line>
		<line class="st3" x1="168.6" y1="146.7" x2="168.6" y2="256.7"></line>
		<line class="st3" x1="150.3" y1="146.7" x2="150.3" y2="256.7"></line>
	</g>
	<g class="st2">
		<rect x="241.9" y="146.7" class="st3" width="110" height="110"></rect>
		<line class="st3" x1="241.9" y1="238.3" x2="351.8" y2="238.3"></line>
		<line class="st3" x1="241.9" y1="220" x2="351.8" y2="220"></line>
		<line class="st3" x1="241.9" y1="201.7" x2="351.8" y2="201.7"></line>
		<line class="st3" x1="241.9" y1="183.4" x2="351.8" y2="183.4"></line>
		<line class="st3" x1="241.9" y1="165" x2="351.8" y2="165"></line>
		<line class="st3" x1="333.5" y1="146.7" x2="333.5" y2="256.7"></line>
		<line class="st3" x1="315.2" y1="146.7" x2="315.2" y2="256.7"></line>
		<line class="st3" x1="296.9" y1="146.7" x2="296.9" y2="256.7"></line>
		<line class="st3" x1="278.5" y1="146.7" x2="278.5" y2="256.7"></line>
		<line class="st3" x1="260.2" y1="146.7" x2="260.2" y2="256.7"></line>
	</g>
	<g class="st2">
		<rect x="351.8" y="146.7" class="st3" width="110" height="110"></rect>
		<line class="st3" x1="351.8" y1="238.3" x2="461.8" y2="238.3"></line>
		<line class="st3" x1="351.8" y1="220" x2="461.8" y2="220"></line>
		<line class="st3" x1="351.8" y1="201.7" x2="461.8" y2="201.7"></line>
		<line class="st3" x1="351.8" y1="183.4" x2="461.8" y2="183.4"></line>
		<line class="st3" x1="351.8" y1="165" x2="461.8" y2="165"></line>
		<line class="st3" x1="443.5" y1="146.7" x2="443.5" y2="256.7"></line>
		<line class="st3" x1="425.1" y1="146.7" x2="425.1" y2="256.7"></line>
		<line class="st3" x1="406.8" y1="146.7" x2="406.8" y2="256.7"></line>
		<line class="st3" x1="388.5" y1="146.7" x2="388.5" y2="256.7"></line>
		<line class="st3" x1="370.2" y1="146.7" x2="370.2" y2="256.7"></line>
	</g>
	<g class="st2">
		<rect x="461.8" y="146.7" class="st3" width="110" height="110"></rect>
		<line class="st3" x1="461.8" y1="238.3" x2="571.8" y2="238.3"></line>
		<line class="st3" x1="461.8" y1="220" x2="571.8" y2="220"></line>
		<line class="st3" x1="461.8" y1="201.7" x2="571.8" y2="201.7"></line>
		<line class="st3" x1="461.8" y1="183.4" x2="571.8" y2="183.4"></line>
		<line class="st3" x1="461.8" y1="165" x2="571.8" y2="165"></line>
		<line class="st3" x1="553.4" y1="146.7" x2="553.4" y2="256.7"></line>
		<line class="st3" x1="535.1" y1="146.7" x2="535.1" y2="256.7"></line>
		<line class="st3" x1="516.8" y1="146.7" x2="516.8" y2="256.7"></line>
		<line class="st3" x1="498.5" y1="146.7" x2="498.5" y2="256.7"></line>
		<line class="st3" x1="480.1" y1="146.7" x2="480.1" y2="256.7"></line>
	</g>
	<g class="st2">
		<rect x="571.8" y="146.7" class="st3" width="110" height="110"></rect>
		<line class="st3" x1="571.8" y1="238.3" x2="681.7" y2="238.3"></line>
		<line class="st3" x1="571.8" y1="220" x2="681.7" y2="220"></line>
		<line class="st3" x1="571.8" y1="201.7" x2="681.7" y2="201.7"></line>
		<line class="st3" x1="571.8" y1="183.4" x2="681.7" y2="183.4"></line>
		<line class="st3" x1="571.8" y1="165" x2="681.7" y2="165"></line>
		<line class="st3" x1="663.4" y1="146.7" x2="663.4" y2="256.7"></line>
		<line class="st3" x1="645.1" y1="146.7" x2="645.1" y2="256.7"></line>
		<line class="st3" x1="626.7" y1="146.7" x2="626.7" y2="256.7"></line>
		<line class="st3" x1="608.4" y1="146.7" x2="608.4" y2="256.7"></line>
		<line class="st3" x1="590.1" y1="146.7" x2="590.1" y2="256.7"></line>
	</g>
	<g class="st2">
		<rect x="681.7" y="146.7" class="st3" width="110" height="110"></rect>
		<line class="st3" x1="681.7" y1="238.3" x2="791.7" y2="238.3"></line>
		<line class="st3" x1="681.7" y1="220" x2="791.7" y2="220"></line>
		<line class="st3" x1="681.7" y1="201.7" x2="791.7" y2="201.7"></line>
		<line class="st3" x1="681.7" y1="183.4" x2="791.7" y2="183.4"></line>
		<line class="st3" x1="681.7" y1="165" x2="791.7" y2="165"></line>
		<line class="st3" x1="773.3" y1="146.7" x2="773.3" y2="256.7"></line>
		<line class="st3" x1="755" y1="146.7" x2="755" y2="256.7"></line>
		<line class="st3" x1="736.7" y1="146.7" x2="736.7" y2="256.7"></line>
		<line class="st3" x1="718.4" y1="146.7" x2="718.4" y2="256.7"></line>
		<line class="st3" x1="700" y1="146.7" x2="700" y2="256.7"></line>
	</g>
	<g class="st2">
		<rect x="791.7" y="146.7" class="st3" width="110" height="110"></rect>
		<line class="st3" x1="791.7" y1="238.3" x2="901.6" y2="238.3"></line>
		<line class="st3" x1="791.7" y1="220" x2="901.6" y2="220"></line>
		<line class="st3" x1="791.7" y1="201.7" x2="901.6" y2="201.7"></line>
		<line class="st3" x1="791.7" y1="183.4" x2="901.6" y2="183.4"></line>
		<line class="st3" x1="791.7" y1="165" x2="901.6" y2="165"></line>
		<line class="st3" x1="883.3" y1="146.7" x2="883.3" y2="256.7"></line>
		<line class="st3" x1="865" y1="146.7" x2="865" y2="256.7"></line>
		<line class="st3" x1="846.7" y1="146.7" x2="846.7" y2="256.7"></line>
		<line class="st3" x1="828.3" y1="146.7" x2="828.3" y2="256.7"></line>
		<line class="st3" x1="810" y1="146.7" x2="810" y2="256.7"></line>
	</g>
	<g class="st2">
		<rect x="901.6" y="146.7" class="st3" width="110" height="110"></rect>
		<line class="st3" x1="901.6" y1="238.3" x2="1011.6" y2="238.3"></line>
		<line class="st3" x1="901.6" y1="220" x2="1011.6" y2="220"></line>
		<line class="st3" x1="901.6" y1="201.7" x2="1011.6" y2="201.7"></line>
		<line class="st3" x1="901.6" y1="183.4" x2="1011.6" y2="183.4"></line>
		<line class="st3" x1="901.6" y1="165" x2="1011.6" y2="165"></line>
		<line class="st3" x1="993.3" y1="146.7" x2="993.3" y2="256.7"></line>
		<line class="st3" x1="974.9" y1="146.7" x2="974.9" y2="256.7"></line>
		<line class="st3" x1="956.6" y1="146.7" x2="956.6" y2="256.7"></line>
		<line class="st3" x1="938.3" y1="146.7" x2="938.3" y2="256.7"></line>
		<line class="st3" x1="920" y1="146.7" x2="920" y2="256.7"></line>
	</g>
	<g class="st2">
		<rect x="22" y="36.8" class="st3" width="110" height="110"></rect>
		<line class="st3" x1="22" y1="128.4" x2="131.9" y2="128.4"></line>
		<line class="st3" x1="22" y1="110.1" x2="131.9" y2="110.1"></line>
		<line class="st3" x1="22" y1="91.7" x2="131.9" y2="91.7"></line>
		<line class="st3" x1="22" y1="73.4" x2="131.9" y2="73.4"></line>
		<line class="st3" x1="22" y1="55.1" x2="131.9" y2="55.1"></line>
		<line class="st3" x1="113.6" y1="36.8" x2="113.6" y2="146.7"></line>
		<line class="st3" x1="95.3" y1="36.8" x2="95.3" y2="146.7"></line>
		<line class="st3" x1="77" y1="36.8" x2="77" y2="146.7"></line>
		<line class="st3" x1="58.6" y1="36.8" x2="58.6" y2="146.7"></line>
		<line class="st3" x1="40.3" y1="36.8" x2="40.3" y2="146.7"></line>
	</g>
	<g class="st2">
		<rect x="131.9" y="36.8" class="st3" width="110" height="110"></rect>
		<line class="st3" x1="131.9" y1="128.4" x2="241.9" y2="128.4"></line>
		<line class="st3" x1="131.9" y1="110.1" x2="241.9" y2="110.1"></line>
		<line class="st3" x1="131.9" y1="91.7" x2="241.9" y2="91.7"></line>
		<line class="st3" x1="131.9" y1="73.4" x2="241.9" y2="73.4"></line>
		<line class="st3" x1="131.9" y1="55.1" x2="241.9" y2="55.1"></line>
		<line class="st3" x1="223.6" y1="36.8" x2="223.6" y2="146.7"></line>
		<line class="st3" x1="205.2" y1="36.8" x2="205.2" y2="146.7"></line>
		<line class="st3" x1="186.9" y1="36.8" x2="186.9" y2="146.7"></line>
		<line class="st3" x1="168.6" y1="36.8" x2="168.6" y2="146.7"></line>
		<line class="st3" x1="150.3" y1="36.8" x2="150.3" y2="146.7"></line>
	</g>
	<g class="st2">
		<rect x="241.9" y="36.8" class="st3" width="110" height="110"></rect>
		<line class="st3" x1="241.9" y1="128.4" x2="351.8" y2="128.4"></line>
		<line class="st3" x1="241.9" y1="110.1" x2="351.8" y2="110.1"></line>
		<line class="st3" x1="241.9" y1="91.7" x2="351.8" y2="91.7"></line>
		<line class="st3" x1="241.9" y1="73.4" x2="351.8" y2="73.4"></line>
		<line class="st3" x1="241.9" y1="55.1" x2="351.8" y2="55.1"></line>
		<line class="st3" x1="333.5" y1="36.8" x2="333.5" y2="146.7"></line>
		<line class="st3" x1="315.2" y1="36.8" x2="315.2" y2="146.7"></line>
		<line class="st3" x1="296.9" y1="36.8" x2="296.9" y2="146.7"></line>
		<line class="st3" x1="278.5" y1="36.8" x2="278.5" y2="146.7"></line>
		<line class="st3" x1="260.2" y1="36.8" x2="260.2" y2="146.7"></line>
	</g>
	<g class="st2">
		<rect x="351.8" y="36.8" class="st3" width="110" height="110"></rect>
		<line class="st3" x1="351.8" y1="128.4" x2="461.8" y2="128.4"></line>
		<line class="st3" x1="351.8" y1="110.1" x2="461.8" y2="110.1"></line>
		<line class="st3" x1="351.8" y1="91.7" x2="461.8" y2="91.7"></line>
		<line class="st3" x1="351.8" y1="73.4" x2="461.8" y2="73.4"></line>
		<line class="st3" x1="351.8" y1="55.1" x2="461.8" y2="55.1"></line>
		<line class="st3" x1="443.5" y1="36.8" x2="443.5" y2="146.7"></line>
		<line class="st3" x1="425.1" y1="36.8" x2="425.1" y2="146.7"></line>
		<line class="st3" x1="406.8" y1="36.8" x2="406.8" y2="146.7"></line>
		<line class="st3" x1="388.5" y1="36.8" x2="388.5" y2="146.7"></line>
		<line class="st3" x1="370.2" y1="36.8" x2="370.2" y2="146.7"></line>
	</g>
	<g class="st2">
		<rect x="461.8" y="36.8" class="st3" width="110" height="110"></rect>
		<line class="st3" x1="461.8" y1="128.4" x2="571.8" y2="128.4"></line>
		<line class="st3" x1="461.8" y1="110.1" x2="571.8" y2="110.1"></line>
		<line class="st3" x1="461.8" y1="91.7" x2="571.8" y2="91.7"></line>
		<line class="st3" x1="461.8" y1="73.4" x2="571.8" y2="73.4"></line>
		<line class="st3" x1="461.8" y1="55.1" x2="571.8" y2="55.1"></line>
		<line class="st3" x1="553.4" y1="36.8" x2="553.4" y2="146.7"></line>
		<line class="st3" x1="535.1" y1="36.8" x2="535.1" y2="146.7"></line>
		<line class="st3" x1="516.8" y1="36.8" x2="516.8" y2="146.7"></line>
		<line class="st3" x1="498.5" y1="36.8" x2="498.5" y2="146.7"></line>
		<line class="st3" x1="480.1" y1="36.8" x2="480.1" y2="146.7"></line>
	</g>
	<g class="st2">
		<rect x="571.8" y="36.8" class="st3" width="110" height="110"></rect>
		<line class="st3" x1="571.8" y1="128.4" x2="681.7" y2="128.4"></line>
		<line class="st3" x1="571.8" y1="110.1" x2="681.7" y2="110.1"></line>
		<line class="st3" x1="571.8" y1="91.7" x2="681.7" y2="91.7"></line>
		<line class="st3" x1="571.8" y1="73.4" x2="681.7" y2="73.4"></line>
		<line class="st3" x1="571.8" y1="55.1" x2="681.7" y2="55.1"></line>
		<line class="st3" x1="663.4" y1="36.8" x2="663.4" y2="146.7"></line>
		<line class="st3" x1="645.1" y1="36.8" x2="645.1" y2="146.7"></line>
		<line class="st3" x1="626.7" y1="36.8" x2="626.7" y2="146.7"></line>
		<line class="st3" x1="608.4" y1="36.8" x2="608.4" y2="146.7"></line>
		<line class="st3" x1="590.1" y1="36.8" x2="590.1" y2="146.7"></line>
	</g>
	<g class="st2">
		<rect x="681.7" y="36.8" class="st3" width="110" height="110"></rect>
		<line class="st3" x1="681.7" y1="128.4" x2="791.7" y2="128.4"></line>
		<line class="st3" x1="681.7" y1="110.1" x2="791.7" y2="110.1"></line>
		<line class="st3" x1="681.7" y1="91.7" x2="791.7" y2="91.7"></line>
		<line class="st3" x1="681.7" y1="73.4" x2="791.7" y2="73.4"></line>
		<line class="st3" x1="681.7" y1="55.1" x2="791.7" y2="55.1"></line>
		<line class="st3" x1="773.3" y1="36.8" x2="773.3" y2="146.7"></line>
		<line class="st3" x1="755" y1="36.8" x2="755" y2="146.7"></line>
		<line class="st3" x1="736.7" y1="36.8" x2="736.7" y2="146.7"></line>
		<line class="st3" x1="718.4" y1="36.8" x2="718.4" y2="146.7"></line>
		<line class="st3" x1="700" y1="36.8" x2="700" y2="146.7"></line>
	</g>
	<g class="st2">
		<rect x="791.7" y="36.8" class="st3" width="110" height="110"></rect>
		<line class="st3" x1="791.7" y1="128.4" x2="901.6" y2="128.4"></line>
		<line class="st3" x1="791.7" y1="110.1" x2="901.6" y2="110.1"></line>
		<line class="st3" x1="791.7" y1="91.7" x2="901.6" y2="91.7"></line>
		<line class="st3" x1="791.7" y1="73.4" x2="901.6" y2="73.4"></line>
		<line class="st3" x1="791.7" y1="55.1" x2="901.6" y2="55.1"></line>
		<line class="st3" x1="883.3" y1="36.8" x2="883.3" y2="146.7"></line>
		<line class="st3" x1="865" y1="36.8" x2="865" y2="146.7"></line>
		<line class="st3" x1="846.7" y1="36.8" x2="846.7" y2="146.7"></line>
		<line class="st3" x1="828.3" y1="36.8" x2="828.3" y2="146.7"></line>
		<line class="st3" x1="810" y1="36.8" x2="810" y2="146.7"></line>
	</g>
	<g class="st2">
		<rect x="901.6" y="36.8" class="st3" width="110" height="110"></rect>
		<line class="st3" x1="901.6" y1="128.4" x2="1011.6" y2="128.4"></line>
		<line class="st3" x1="901.6" y1="110.1" x2="1011.6" y2="110.1"></line>
		<line class="st3" x1="901.6" y1="91.7" x2="1011.6" y2="91.7"></line>
		<line class="st3" x1="901.6" y1="73.4" x2="1011.6" y2="73.4"></line>
		<line class="st3" x1="901.6" y1="55.1" x2="1011.6" y2="55.1"></line>
		<line class="st3" x1="993.3" y1="36.8" x2="993.3" y2="146.7"></line>
		<line class="st3" x1="974.9" y1="36.8" x2="974.9" y2="146.7"></line>
		<line class="st3" x1="956.6" y1="36.8" x2="956.6" y2="146.7"></line>
		<line class="st3" x1="938.3" y1="36.8" x2="938.3" y2="146.7"></line>
		<line class="st3" x1="920" y1="36.8" x2="920" y2="146.7"></line>
	</g>
	<rect x="538.8" y="22.1" class="st4" width="14.7" height="14.7"></rect>
	<rect x="553.5" class="st4" width="14.7" height="14.7"></rect>
	<rect x="7.3" y="216.4" class="st4" width="14.7" height="14.7"></rect>
	<rect x="37.1" y="256.7" class="st4" width="14.7" height="14.7"></rect>
	<rect x="51.9" y="256.7" class="st4" width="14.7" height="14.7"></rect>
	<rect x="575.5" y="22.1" class="st4" width="14.7" height="14.7"></rect>
	<rect x="756.8" y="22.1" class="st4" width="14.7" height="14.7"></rect>
	<rect x="896.7" y="22.1" class="st4" width="14.7" height="14.7"></rect>
	<rect x="977.8" y="256.7" class="st4" width="14.7" height="14.7"></rect>
	<rect x="992.6" y="256.7" class="st4" width="14.7" height="14.7"></rect>
	<g class="st2">
		<rect x="553.5" y="14.7" class="st3" width="22.1" height="22.1"></rect>
		<line class="st3" x1="553.5" y1="33.1" x2="575.5" y2="33.1"></line>
		<line class="st3" x1="553.5" y1="29.4" x2="575.5" y2="29.4"></line>
		<line class="st3" x1="553.5" y1="25.7" x2="575.5" y2="25.7"></line>
		<line class="st3" x1="553.5" y1="22" x2="575.5" y2="22"></line>
		<line class="st3" x1="553.5" y1="18.4" x2="575.5" y2="18.4"></line>
		<line class="st3" x1="571.8" y1="14.7" x2="571.8" y2="36.8"></line>
		<line class="st3" x1="568.2" y1="14.7" x2="568.2" y2="36.8"></line>
		<line class="st3" x1="564.5" y1="14.7" x2="564.5" y2="36.8"></line>
		<line class="st3" x1="560.8" y1="14.7" x2="560.8" y2="36.8"></line>
		<line class="st3" x1="557.1" y1="14.7" x2="557.1" y2="36.8"></line>
	</g>
</g>
</svg>
