<?xml version="1.0" encoding="UTF-8"?>
<svg id="svg4358" xmlns="http://www.w3.org/2000/svg" viewBox="0 0 596.54 596.54">
  <g id="layer1">
    <path id="path44" d="M406.2,279.62v187.16h13.38l8.03-21.4c7.22,10.96,16.59,24.07,40.93,24.07,16.86,0,28.63-5.61,39.07-19.26,10.97-14.71,15.25-33.17,15.25-51.9,0-48.96-25.41-69.56-50.29-69.56-21.93,0-29.7,12.31-36.65,24.08v-73.18h-29.7Zm-76.09,52.58c-38.79,0-62.07,30.23-62.07,69.03,0,33.17,17.13,68.22,60.74,68.22,25.87,0,48.82-11.71,58.23-40.68h-28.39c-3.48,7.47-10.28,17.4-27.97,17.4-10.7,0-19-3.75-24.62-12.04-7.49-10.43-7.22-20.87-6.95-29.7h90.43c.8-38.26-16.59-72.24-59.4-72.24h0Zm-160.64,2.67v23.28h58.86l-65.01,85.35v23.28h99.53v-23.28h-64.21l64.21-87.48v-21.14h-93.37Zm159.57,18.2c10.17,0,17.66,4.54,23.01,11.5,5.62,7.76,6.15,13.91,6.42,20.6h-59.39c.8-6.95,1.6-12.58,6.15-19.26,5.62-8.56,13.64-12.84,23.81-12.84h0Zm134.96,1.33c25.42,0,27.02,29.44,27.56,43.08-.27,14.44-1.07,47.62-28.36,47.62-14.98,0-27.29-9.37-27.29-34.52v-19.8c0-27.03,15.25-36.39,28.09-36.39h0Z"></path>
    <path id="path52" d="M488.36,503.34c-49.89,46.27-116.68,74.57-190.09,74.57-154.43,0-279.63-125.2-279.63-279.63S143.84,18.65,298.27,18.65s279.63,125.19,279.63,279.63c0,62.95-20.81,121.04-55.91,167.78h22.91c32.59-47.81,51.64-105.56,51.64-167.78C596.54,133.54,463,0,298.27,0S0,133.54,0,298.27s133.54,298.27,298.27,298.27c85.3,0,162.23-35.81,216.59-93.21h-26.5Z"></path>
  </g>
</svg>